<svg xmlns="http://www.w3.org/2000/svg" viewBox="0 0 800 800" preserveAspectRatio="xMidYMid meet">
<g transform="translate(50, 800) scale(0.1, -0.1)">
<path d="M1910 7485 c-118 -33 -234 -131 -342 -288 -57 -84 -139 -240 -167
-317 -7 -19 -17 -44 -21 -55 -78 -187 -187 -662 -206 -903 l-7 -83 -83 -101
c-46 -56 -123 -159 -171 -230 -48 -71 -90 -125 -93 -121 -10 11 -26 80 -51
213 -32 177 -45 215 -85 249 -85 75 -204 15 -204 -103 0 -30 15 -122 60 -366
11 -63 25 -140 30 -170 34 -189 43 -220 86 -272 69 -82 112 -93 239 -59 210
57 552 165 585 186 101 64 67 219 -51 232 -30 3 -72 -3 -134 -22 -177 -52
-236 -67 -242 -61 -8 7 109 184 192 291 35 44 104 122 155 172 l93 93 -6 212
c-5 209 -4 215 24 333 45 187 85 323 120 410 43 107 59 141 97 215 73 140 145
225 224 266 112 57 208 9 338 -171 59 -82 129 -214 169 -320 43 -112 110 -254
134 -283 11 -14 27 -12 142 18 96 25 228 49 365 65 115 14 403 17 520 6 339
-32 687 -124 954 -253 70 -33 78 -34 100 -9 20 22 86 130 86 141 0 5 3 10 8
12 4 2 25 39 46 83 155 315 346 524 482 525 66 0 147 -82 205 -208 92 -199
131 -425 131 -752 1 -194 -6 -276 -23 -294 -5 -6 -9 -38 -9 -73 0 -35 -4 -63
-10 -63 -13 0 -13 -117 0 -125 6 -3 43 -48 83 -98 179 -225 293 -416 433 -725
72 -157 147 -405 188 -617 45 -238 51 -307 51 -600 0 -267 -3 -309 -36 -515
-17 -103 -83 -371 -106 -430 -3 -8 -16 -42 -28 -75 -105 -289 -295 -628 -460
-822 -5 -7 -14 -18 -20 -25 -61 -80 -255 -280 -335 -345 -19 -15 -42 -35 -50
-44 -31 -33 -209 -160 -315 -224 -105 -64 -282 -155 -390 -201 -80 -35 -318
-112 -407 -133 -121 -28 -178 -38 -351 -61 -98 -13 -509 -13 -591 0 -33 5 -99
14 -146 21 -47 6 -101 15 -120 19 -19 5 -57 14 -85 20 -387 87 -780 275 -1119
537 -147 113 -371 327 -468 447 -170 210 -287 387 -392 596 -143 283 -210 479
-286 830 -5 25 -14 81 -20 125 -5 44 -14 115 -20 158 -5 43 -10 241 -10 441 0
391 -3 416 -52 450 -12 9 -42 16 -65 16 -38 0 -49 -6 -87 -43 l-43 -43 -9
-140 c-13 -202 -11 -631 4 -759 22 -196 81 -480 133 -645 82 -254 237 -585
378 -805 210 -327 401 -537 767 -845 35 -29 264 -183 339 -227 340 -200 797
-361 1145 -403 52 -6 119 -16 149 -21 30 -5 157 -9 282 -9 263 0 468 19 649
61 25 6 65 15 90 21 114 26 323 94 441 143 615 256 1122 700 1473 1293 46 76
184 364 215 447 13 33 27 69 31 80 10 22 58 172 70 220 60 225 83 351 110 600
13 119 13 514 0 612 -26 192 -31 231 -40 273 -4 25 -14 74 -20 110 -7 36 -16
79 -21 95 -5 17 -23 80 -39 140 -17 61 -35 119 -39 130 -5 11 -19 49 -31 85
-12 36 -28 79 -35 95 -7 17 -25 59 -40 95 -94 225 -254 500 -412 707 l-56 73
12 42 c22 76 26 491 7 673 -38 365 -104 580 -238 777 -62 90 -161 160 -279
197 -86 27 -221 2 -331 -61 -154 -89 -336 -316 -456 -572 -38 -79 -19 -77
-197 -16 -496 171 -1056 215 -1545 120 -101 -19 -114 -17 -124 26 -6 23 -28
73 -84 194 -118 253 -310 462 -471 511 -61 19 -200 20 -261 4z"/>
<path d="M3415 5716 c-37 -17 -68 -51 -83 -91 -6 -16 -13 -111 -16 -210 -7
-198 -14 -389 -58 -1395 -18 -430 -17 -545 6 -593 22 -44 78 -95 485 -437 255
-214 433 -365 571 -483 14 -12 48 -40 75 -61 28 -22 83 -69 124 -104 110 -96
167 -113 232 -69 22 14 39 38 48 64 23 65 4 110 -72 177 -114 101 -793 675
-1045 885 -43 35 -98 83 -124 107 l-48 43 5 103 c3 57 10 225 15 373 9 247 17
438 51 1220 6 149 10 301 7 338 -4 61 -7 71 -38 102 -41 40 -91 51 -135 31z"/>
</g>
</svg>
