<svg xmlns="http://www.w3.org/2000/svg" viewBox="0 0 800 800" preserveAspectRatio="xMidYMid meet">
<g transform="translate(0, 800) scale(0.1, -0.1)">
<path d="M1897 7863 c1046 -2 2760 -2 3810 0 1049 1 194 2 -1902 2 -2096 0
-2954 -1 -1908 -2z"/>
<path d="M5205 7218 c-198 -69 -351 -259 -441 -545 -37 -116 -41 -121 -88
-103 -34 12 -311 66 -411 79 -261 34 -375 37 -635 21 -201 -13 -356 -36 -516
-76 -18 -5 -28 6 -64 73 -144 267 -302 428 -486 494 -71 26 -235 31 -299 10
-200 -66 -387 -243 -526 -497 -49 -91 -139 -272 -139 -282 0 -4 -9 -26 -19
-49 -45 -93 -160 -460 -201 -643 -7 -30 -16 -68 -21 -84 -5 -16 -9 -37 -9 -48
0 -10 -33 -58 -73 -106 -144 -171 -331 -467 -424 -671 -19 -42 -41 -89 -48
-106 -81 -176 -170 -482 -209 -712 -39 -227 -53 -579 -31 -748 2 -16 6 -61 10
-100 11 -132 72 -438 104 -520 4 -11 25 -72 46 -135 70 -211 188 -451 326
-661 430 -655 1136 -1135 1919 -1303 106 -23 117 -25 195 -37 151 -23 218 -29
430 -35 264 -8 402 3 700 58 160 29 444 108 550 153 17 7 57 23 90 36 33 13
141 64 240 114 648 328 1159 846 1471 1491 146 301 235 608 295 1014 16 109
17 581 1 670 -6 36 -19 115 -28 175 -73 493 -319 1023 -664 1435 -39 47 -83
108 -97 135 l-26 50 2 296 2 296 -45 137 c-82 243 -196 438 -336 569 -136 128
-247 177 -399 177 -61 -1 -103 -7 -146 -22z m281 -239 c87 -41 214 -181 276
-304 23 -44 84 -230 101 -305 21 -93 41 -342 34 -430 -3 -41 -9 -112 -13 -157
-9 -115 2 -141 121 -272 352 -387 592 -869 679 -1361 39 -226 41 -248 41 -515
-1 -320 -14 -429 -87 -712 -32 -124 -104 -343 -119 -358 -5 -5 -9 -15 -9 -23
0 -21 -115 -255 -173 -352 -277 -464 -622 -813 -1076 -1089 -135 -82 -352
-188 -486 -238 -22 -8 -49 -19 -60 -24 -11 -5 -65 -23 -120 -39 -176 -54 -294
-81 -455 -104 -63 -9 -145 -21 -182 -26 -86 -13 -489 -13 -576 0 -37 5 -107
14 -157 20 -49 6 -118 17 -152 25 -35 8 -93 22 -130 31 -102 24 -227 62 -340
105 -92 35 -324 144 -398 187 -245 143 -423 278 -610 466 -365 367 -613 807
-734 1303 -16 65 -34 150 -40 188 -6 39 -16 104 -23 145 -16 99 -17 562 0 653
6 37 17 100 23 140 78 487 297 972 618 1365 42 52 90 113 108 135 18 23 42 55
55 71 13 17 26 50 30 75 4 25 10 64 13 86 4 22 9 47 12 55 3 8 8 24 9 35 16
96 15 90 44 158 5 12 21 65 35 117 42 157 47 171 98 275 70 142 140 262 253
435 23 36 67 89 98 118 153 145 302 135 466 -32 90 -92 141 -170 227 -343 51
-105 80 -153 91 -153 9 0 71 13 137 30 126 31 245 51 460 76 263 31 708 1 955
-65 19 -5 64 -17 100 -26 36 -9 90 -25 120 -36 31 -10 77 -22 102 -25 56 -8
61 -1 112 136 133 362 250 542 381 588 38 13 65 7 141 -29z"/>
<path d="M3576 5130 c-17 -10 -38 -34 -48 -52 -16 -31 -17 -90 -17 -878 1
-465 4 -975 8 -1135 6 -258 8 -293 25 -321 25 -42 66 -65 120 -66 56 -1 102
25 128 72 20 34 20 55 14 1110 -4 591 -10 1105 -15 1142 -9 70 -29 106 -73
132 -36 22 -106 20 -142 -4z"/>
<path d="M3602 2286 c-44 -15 -100 -69 -118 -112 -29 -69 -12 -171 40 -239 61
-79 178 -100 254 -45 63 46 93 98 99 173 4 50 1 72 -16 109 -46 102 -158 151
-259 114z"/>
</g>
</svg>
