<svg xmlns="http://www.w3.org/2000/svg" viewBox="0 0 800 800" preserveAspectRatio="xMidYMid meet">
<g transform="translate(0, 800) scale(0.1, -0.1)">
<path d="M1973 7863 c1088 -2 2866 -2 3950 0 1085 1 195 2 -1978 2 -2172 0
-3060 -1 -1972 -2z"/>
<path d="M2268 7140 c-142 -43 -294 -211 -348 -385 -30 -97 -38 -274 -16 -375
19 -91 78 -216 135 -288 47 -58 141 -125 204 -144 l40 -12 -7 -1996 c-5 -1097
-11 -2035 -15 -2085 l-6 -90 -47 -15 c-26 -8 -50 -18 -54 -22 -18 -19 -52 -6
-83 32 -41 51 -97 80 -155 80 -87 0 -176 -101 -176 -199 0 -86 47 -218 109
-305 l34 -48 -19 -57 c-14 -40 -19 -81 -18 -146 1 -77 6 -99 31 -155 66 -142
178 -234 342 -281 207 -59 437 -19 625 111 59 40 157 148 183 201 62 125 69
273 18 389 -26 60 -29 78 -34 230 -5 145 -9 171 -29 212 -28 56 -75 89 -138
96 -58 6 -143 -36 -192 -96 -32 -39 -39 -43 -66 -38 -59 12 -58 -9 -52 601 3
308 8 1244 11 2080 l6 1520 26 20 c15 11 59 52 99 92 80 79 128 165 160 283
24 90 25 292 2 378 -57 204 -190 359 -348 406 -56 17 -176 20 -222 6z m207
-191 c122 -57 205 -224 205 -410 0 -195 -95 -369 -226 -419 -73 -27 -108 -25
-180 9 -128 60 -204 214 -204 412 0 99 23 201 58 258 60 99 104 142 168 161
54 16 132 11 179 -11z m356 -5276 c14 -37 6 -143 -15 -184 -22 -44 -20 -70 9
-110 71 -99 79 -120 80 -199 0 -88 -21 -139 -85 -212 -140 -159 -427 -216
-626 -124 -152 71 -208 207 -154 376 30 93 27 120 -20 176 -50 61 -91 145 -98
202 -6 53 15 57 42 8 43 -79 114 -114 173 -83 156 82 140 77 258 77 105 0 113
-2 180 -34 55 -27 75 -32 98 -25 39 11 52 24 68 62 15 40 57 97 70 97 5 0 14
-12 20 -27z"/>
<path d="M2576 1419 c-52 -41 -21 -129 46 -129 65 0 94 88 42 129 -15 12 -34
21 -44 21 -10 0 -29 -9 -44 -21z"/>
<path d="M2172 1382 c-44 -42 -45 -92 -1 -133 39 -37 70 -37 111 0 26 23 32
36 31 66 -1 45 -33 82 -79 91 -24 5 -36 0 -62 -24z"/>
<path d="M4640 7007 c-111 -70 -319 -296 -375 -408 -31 -61 -31 -104 -1 -178
36 -88 230 -327 320 -392 75 -56 170 -33 196 47 21 63 -1 111 -97 215 -46 50
-82 97 -80 103 5 16 128 27 227 21 208 -15 401 -91 445 -175 45 -87 48 -113
36 -330 -6 -113 -15 -308 -21 -435 -5 -126 -15 -331 -20 -455 -6 -124 -19
-430 -30 -680 -11 -250 -22 -500 -25 -555 -3 -55 -10 -208 -15 -340 -5 -132
-17 -384 -25 -560 -13 -281 -44 -998 -45 -1033 0 -14 -80 -52 -109 -52 -10 0
-33 18 -51 41 -65 81 -155 100 -233 48 -65 -43 -102 -119 -94 -192 7 -68 49
-189 85 -246 16 -25 35 -56 42 -68 13 -19 12 -29 -5 -78 -12 -37 -18 -83 -18
-134 1 -251 220 -446 522 -468 266 -18 545 123 658 334 41 78 57 153 51 254
-3 68 -10 98 -37 156 -32 69 -34 77 -29 158 7 105 -5 223 -28 271 -10 22 -36
49 -63 66 -38 24 -54 29 -91 25 -63 -5 -113 -32 -169 -89 l-49 -50 -57 13
c-31 7 -59 18 -62 25 -3 7 0 131 7 276 6 145 15 360 20 478 5 118 14 312 20
430 6 118 15 319 20 445 12 293 28 642 41 910 5 116 14 311 19 435 5 124 15
324 21 445 6 121 13 391 16 600 l5 380 -39 70 c-71 130 -180 214 -356 275
-119 41 -180 51 -349 57 -110 4 -148 8 -148 17 0 7 27 37 61 66 87 76 113 118
105 172 -4 24 -12 50 -19 58 -41 54 -118 65 -177 27z m1094 -5243 c11 -30 5
-139 -10 -179 -31 -80 -32 -75 41 -182 39 -57 40 -60 40 -143 0 -100 -16 -136
-96 -224 -58 -64 -171 -125 -270 -146 -82 -18 -241 -8 -309 18 -180 71 -247
215 -185 396 31 91 28 114 -22 169 -67 75 -130 247 -90 247 9 0 25 -17 36 -37
28 -55 63 -84 110 -90 35 -5 50 -1 93 26 74 46 154 64 263 59 78 -4 98 -9 152
-37 88 -46 125 -31 168 65 28 64 66 92 79 58z"/>
<path d="M5430 1552 c-22 -22 -30 -40 -30 -65 0 -48 41 -97 81 -97 125 0 140
167 16 187 -31 5 -40 1 -67 -25z"/>
<path d="M5046 1484 c-39 -40 -37 -103 5 -138 17 -15 43 -26 59 -26 16 0 42
11 59 26 25 21 31 33 31 66 0 85 -96 129 -154 72z"/>
</g>
</svg>
