<svg xmlns="http://www.w3.org/2000/svg" viewBox="0 0 800 800" preserveAspectRatio="xMidYMid meet">
<g transform="translate(100, 800) scale(0.1, -0.1)">
<path d="M4475 7209 c-433 -15 -1220 -40 -1555 -49 -1153 -31 -2104 -68 -2135
-82 -14 -6 -28 -21 -30 -32 -3 -12 -9 -289 -15 -616 -6 -327 -15 -831 -20
-1120 -11 -569 -25 -1346 -40 -2245 -5 -313 -14 -806 -21 -1095 -10 -481 -10
-530 6 -582 15 -52 15 -61 1 -109 -35 -115 -15 -331 40 -440 64 -128 231 -229
380 -229 36 0 54 -4 55 -12 1 -7 0 -108 -1 -225 -2 -207 -1 -213 21 -245 33
-47 49 -57 92 -58 34 0 45 7 95 58 31 31 86 90 121 130 35 39 68 72 73 72 6 0
71 -59 145 -130 75 -72 147 -133 161 -137 37 -9 73 8 99 46 20 29 23 47 23
121 0 48 3 148 7 223 l6 137 178 0 c98 0 211 4 251 9 40 6 426 12 858 15 1103
7 1310 22 1487 109 77 37 147 109 189 194 25 51 28 69 29 148 0 79 -4 97 -27
141 -15 28 -39 65 -54 83 -26 32 -26 32 -10 75 9 24 35 60 57 81 23 21 48 53
55 72 16 38 23 174 64 1303 22 624 30 840 40 1055 6 127 17 415 26 640 8 226
21 588 29 805 9 217 20 517 25 665 5 149 14 383 20 520 18 440 18 565 -2 602
-22 38 -68 74 -126 96 -48 19 -185 20 -597 6z m427 -311 c2 -7 1 -98 -3 -203
-28 -726 -40 -1061 -49 -1270 -5 -132 -12 -314 -15 -405 -3 -91 -10 -268 -15
-395 -6 -126 -17 -423 -25 -660 -8 -236 -20 -527 -25 -645 -6 -118 -15 -341
-20 -495 -14 -408 -31 -849 -38 -1015 l-7 -145 -170 -7 c-93 -3 -366 -11 -605
-17 -451 -12 -795 -20 -1790 -46 -322 -9 -719 -18 -882 -22 l-298 -6 0 54 c0
30 4 239 10 464 6 226 17 808 25 1295 18 1075 31 1804 45 2585 6 325 12 642
13 705 l2 115 70 7 c39 3 257 11 485 17 228 7 550 16 715 21 165 6 435 14 600
20 165 5 476 15 690 21 215 6 543 17 730 24 480 17 552 18 557 3z m-258 -5557
c3 -5 -16 -37 -42 -72 -53 -72 -66 -77 -212 -78 -41 -1 -133 -5 -205 -11 -71
-5 -265 -17 -430 -25 -165 -8 -372 -20 -460 -25 -203 -13 -445 -26 -805 -45
-400 -21 -426 -23 -465 -39 -34 -15 -35 -14 -41 10 -8 32 0 211 10 221 4 4 73
9 154 10 81 2 320 7 532 13 212 6 669 17 1015 25 702 17 805 20 887 23 31 1
59 -2 62 -7z m-2841 -78 c5 -11 -12 -886 -18 -891 -3 -3 -43 31 -89 76 -132
126 -182 127 -297 5 -33 -36 -64 -62 -68 -57 -12 13 9 846 21 862 8 9 66 12
229 12 120 0 220 -3 222 -7z m-642 -15 c2 -48 -3 -202 -8 -214 -3 -8 -16 -14
-28 -14 -74 0 -125 69 -125 167 0 33 3 63 7 66 13 13 153 8 154 -5z m3622
-123 c24 -49 21 -84 -9 -141 -40 -75 -70 -97 -174 -128 -142 -42 -789 -68
-1645 -64 -288 1 -483 -3 -565 -11 -69 -7 -188 -11 -265 -9 l-140 3 -3 68 c-2
37 1 67 6 67 5 0 23 -7 40 -15 26 -14 56 -14 224 -5 333 18 716 39 888 50 91
5 298 16 460 25 162 9 367 20 455 25 88 5 239 14 336 19 218 13 248 22 313 95
27 31 52 56 56 56 3 0 14 -16 23 -35z m-3880 -184 c41 -56 112 -94 189 -99 54
-4 58 -6 58 -30 0 -24 -1 -25 -63 -20 -129 11 -248 111 -247 207 1 25 1 25 16
6 8 -11 29 -40 47 -64z"/>
<path d="M2095 5326 c-91 -42 -130 -119 -142 -277 -9 -129 41 -388 85 -440 45
-54 129 -32 146 37 4 13 -4 63 -15 111 -15 61 -23 130 -26 228 -4 132 -3 141
17 163 17 17 32 22 75 22 49 0 61 -5 142 -59 48 -33 109 -80 134 -105 67 -65
84 -66 182 -17 45 23 107 48 137 56 62 17 220 20 283 6 23 -5 71 -15 107 -21
36 -7 79 -16 95 -21 113 -32 169 -55 235 -94 93 -56 126 -58 182 -11 38 33
105 56 160 56 35 0 97 -22 114 -41 15 -17 15 -21 1 -41 -24 -36 -54 -65 -111
-107 -73 -54 -96 -86 -96 -131 0 -30 6 -44 31 -64 48 -41 60 -37 185 60 96 74
140 123 166 182 53 118 -2 228 -147 293 -41 19 -68 23 -150 23 -86 0 -109 -3
-166 -27 -36 -15 -70 -27 -76 -27 -6 0 -48 18 -94 39 -105 48 -249 85 -447
113 -149 21 -154 21 -245 4 -50 -10 -126 -31 -167 -47 l-74 -29 -56 43 c-151
118 -218 147 -332 147 -66 0 -93 -5 -133 -24z"/>
<path d="M2491 4644 c-25 -32 -28 -100 -5 -132 10 -14 26 -22 44 -22 18 0 34
8 44 22 21 30 21 121 0 142 -23 24 -60 19 -83 -10z"/>
<path d="M3447 4643 c-24 -27 -31 -70 -17 -103 22 -52 88 -53 110 0 21 52 -10
120 -55 120 -12 0 -29 -8 -38 -17z"/>
<path d="M4118 4575 c-2 -3 -42 -16 -88 -30 -70 -21 -89 -23 -115 -14 -47 17
-86 1 -109 -44 -10 -21 -30 -45 -45 -54 -81 -50 -131 -88 -131 -100 0 -18 8
-17 89 17 84 34 87 32 78 -56 -6 -62 -48 -161 -72 -170 -9 -4 -35 0 -58 9
-109 40 -130 25 -39 -28 29 -17 52 -37 52 -47 0 -15 -80 -94 -128 -126 -22
-14 -25 -13 -77 38 -30 30 -58 51 -61 47 -4 -4 7 -35 24 -69 37 -74 39 -71
-72 -117 -173 -72 -374 -102 -552 -82 -64 7 -141 19 -172 27 -70 18 -162 54
-162 63 0 4 9 26 20 49 22 44 27 112 9 112 -12 0 -74 -62 -100 -101 -16 -23
-16 -23 -45 -4 -36 23 -144 125 -144 136 0 4 29 24 64 44 78 44 96 62 70 72
-15 5 -71 -6 -167 -34 -23 -7 -49 55 -51 122 l-1 50 78 5 c42 3 77 9 78 15 0
5 -33 17 -73 25 l-73 16 -7 44 c-13 79 -84 115 -141 70 -13 -11 -28 -32 -32
-47 -11 -47 -19 -50 -104 -45 -103 6 -114 -10 -24 -37 38 -11 77 -21 88 -23
17 -3 21 -14 26 -78 4 -41 16 -103 28 -137 23 -68 26 -93 12 -93 -8 0 -103
-61 -176 -112 -5 -4 -6 -10 -3 -13 9 -9 68 11 142 46 59 29 106 37 106 20 0
-19 107 -126 178 -178 39 -30 72 -56 72 -58 0 -3 -26 -56 -57 -119 -84 -170
-62 -167 63 7 30 42 60 77 66 77 6 0 51 -15 102 -34 108 -40 305 -76 420 -76
189 0 426 51 579 124 43 21 84 35 92 33 7 -3 52 -60 100 -126 98 -136 126
-159 94 -78 -20 50 -86 178 -115 223 -18 27 -11 45 24 67 34 20 95 78 150 141
l42 49 58 -12 c31 -7 68 -15 82 -18 25 -6 25 -6 6 15 -10 11 -38 29 -63 39
-51 21 -51 15 -4 143 28 76 31 97 31 195 l0 111 58 28 c67 32 122 68 122 79 0
8 -34 10 -42 2z"/>
<path d="M2922 4504 c-47 -32 -17 -104 44 -104 39 0 54 16 54 56 0 34 -28 64
-60 64 -9 0 -26 -7 -38 -16z"/>
</g>
</svg>
