<svg xmlns="http://www.w3.org/2000/svg" viewBox="0 0 800 800" preserveAspectRatio="xMidYMid meet">
<g transform="translate(0, 800) scale(0.1, -0.1)">
<path d="M2898 7671 c-74 -34 -100 -71 -117 -167 -11 -60 -7 -478 19 -1869 8
-441 8 -532 -4 -543 -11 -12 -78 -33 -336 -108 -30 -9 -82 -24 -115 -34 -33
-10 -134 -39 -225 -65 -91 -26 -201 -58 -245 -71 -44 -13 -136 -40 -205 -60
-144 -41 -327 -94 -450 -130 -47 -14 -98 -29 -115 -34 -16 -4 -133 -38 -260
-75 -126 -37 -243 -71 -260 -76 -16 -4 -70 -19 -119 -33 -190 -53 -257 -112
-264 -231 -3 -51 0 -70 21 -111 38 -75 66 -96 216 -163 52 -23 126 -58 165
-76 68 -32 468 -212 666 -300 52 -23 120 -54 150 -68 79 -36 494 -224 564
-256 33 -14 249 -112 480 -216 l421 -190 -3 -1170 -3 -1170 33 -65 c22 -44 47
-76 76 -98 38 -28 51 -32 103 -32 33 0 76 7 96 15 34 15 179 154 333 320 36
39 160 171 275 295 116 124 235 251 265 284 30 32 75 80 100 106 25 26 88 94
140 151 52 57 138 149 190 204 52 55 151 160 219 234 109 116 128 132 150 128
21 -4 216 -81 296 -116 11 -5 38 -16 60 -24 22 -9 108 -43 190 -78 83 -34 200
-81 260 -105 61 -24 118 -48 127 -54 10 -5 22 -10 28 -10 6 0 29 -9 53 -19 23
-11 139 -59 257 -107 210 -84 539 -217 710 -287 47 -19 148 -60 225 -92 77
-31 154 -63 170 -70 79 -36 177 -65 218 -65 122 0 217 106 217 241 0 72 -24
134 -81 209 -32 42 -107 145 -154 210 -18 26 -241 330 -395 540 -36 49 -119
162 -184 252 -66 90 -165 224 -221 298 -56 74 -168 227 -250 340 -82 113 -178
244 -214 292 -177 232 -271 366 -271 383 0 6 40 58 88 115 48 58 218 260 378
450 159 190 359 428 444 529 85 101 231 274 324 385 93 111 212 253 265 316
52 63 98 117 101 120 22 19 134 166 160 210 18 30 38 59 45 65 34 26 55 90 55
164 0 66 -4 81 -36 138 -55 99 -71 106 -231 99 -76 -3 -153 -12 -180 -20 -27
-9 -88 -27 -138 -40 -92 -25 -460 -132 -865 -251 -124 -37 -254 -75 -290 -85
-36 -10 -121 -35 -190 -55 -69 -21 -138 -41 -155 -45 -42 -11 -304 -88 -340
-99 -120 -39 -565 -164 -584 -165 -21 -1 -44 25 -135 145 -61 81 -172 227
-246 325 -74 99 -153 202 -175 230 -84 106 -99 126 -159 208 -51 70 -166 222
-415 551 -26 33 -49 62 -53 63 -5 2 -8 10 -8 17 0 7 -4 15 -8 17 -4 2 -37 41
-72 88 -36 47 -68 87 -71 90 -3 3 -48 61 -100 130 -51 69 -116 148 -144 175
-79 79 -184 105 -267 66z m331 -793 c31 -39 189 -249 339 -448 63 -85 118
-157 121 -160 7 -6 264 -345 296 -389 20 -29 110 -148 220 -291 32 -41 112
-132 179 -202 66 -69 151 -159 187 -199 l67 -73 53 13 c68 17 302 84 474 136
44 14 114 34 155 45 41 11 98 27 125 36 28 8 64 19 80 23 17 5 86 25 155 46
69 20 163 48 210 61 97 27 198 57 285 84 33 10 89 26 125 35 36 9 74 20 85 25
11 4 38 13 60 19 22 6 87 25 145 42 58 17 134 39 170 49 131 36 312 90 321 96
6 3 17 3 25 0 11 -4 -27 -55 -139 -188 -84 -101 -198 -237 -253 -303 -56 -66
-145 -172 -200 -236 -111 -131 -475 -565 -622 -743 -31 -38 -64 -76 -72 -85
-35 -37 -318 -378 -348 -420 -33 -45 -33 -48 -30 -131 l3 -86 62 -69 c34 -39
116 -144 182 -235 192 -263 603 -823 811 -1105 129 -175 314 -426 368 -500 24
-33 49 -68 57 -77 27 -33 37 -58 23 -58 -13 0 -294 110 -383 150 -22 10 -58
24 -80 31 -22 7 -44 16 -50 20 -5 4 -80 34 -165 68 -85 34 -249 101 -365 147
-115 47 -239 97 -275 112 -36 14 -83 33 -105 43 -22 10 -125 53 -230 95 -104
42 -216 87 -247 100 -181 75 -196 79 -309 75 -43 -2 -143 -90 -324 -287 -55
-60 -134 -145 -176 -189 -42 -44 -103 -109 -135 -145 -33 -36 -93 -101 -134
-145 -42 -44 -105 -111 -140 -150 -36 -38 -99 -105 -141 -150 -42 -44 -102
-109 -135 -145 -32 -36 -74 -81 -94 -101 -19 -20 -62 -66 -95 -102 -33 -37
-65 -67 -72 -67 -10 0 -12 212 -10 1002 l2 1003 -22 41 c-46 86 -57 92 -553
316 -85 39 -212 97 -282 129 -69 32 -129 59 -132 59 -2 0 -42 17 -88 38 -46
22 -119 55 -163 75 -44 19 -163 73 -265 120 -102 47 -275 125 -385 175 -110
49 -232 104 -270 122 -39 17 -94 43 -122 56 -29 13 -53 28 -53 34 0 5 26 17
58 26 31 9 140 41 242 71 102 30 223 65 270 78 79 21 496 143 790 230 69 20
148 43 175 50 28 8 113 32 190 55 77 23 174 50 215 61 83 22 164 58 195 86 26
24 75 104 104 173 l24 55 -12 850 c-6 468 -14 896 -17 953 -6 114 2 125 45 70z"/>
<path d="M4758 7163 c-26 -21 -52 -50 -58 -65 -9 -21 -10 -127 -1 -450 6 -233
11 -454 11 -491 0 -65 2 -71 34 -103 38 -38 80 -45 121 -18 13 9 66 63 117
122 51 58 101 115 111 126 10 12 37 41 60 66 23 25 57 63 76 85 19 22 65 74
102 115 111 123 119 133 160 192 46 67 48 88 12 127 -25 27 -92 62 -542 285
-115 57 -141 58 -203 9z m343 -255 c120 -62 219 -117 219 -123 0 -5 -62 -77
-136 -160 -75 -82 -157 -174 -182 -204 -102 -118 -121 -136 -130 -126 -10 11
-24 710 -14 719 11 11 26 5 243 -106z"/>
<path d="M1465 6471 c-21 -9 -396 -384 -436 -434 -18 -24 -21 -37 -16 -78 12
-96 16 -100 282 -251 61 -34 119 -68 130 -75 11 -7 27 -15 35 -19 8 -4 48 -27
88 -51 41 -24 75 -43 77 -43 2 0 39 -21 82 -46 231 -138 246 -144 329 -146 54
-1 70 2 81 17 21 30 15 67 -23 151 -100 218 -453 921 -468 934 -41 33 -128 55
-161 41z m246 -541 c99 -195 179 -358 179 -362 0 -15 -30 -8 -68 15 -36 23
-57 35 -257 144 -55 31 -129 72 -165 93 -36 20 -96 54 -135 75 -116 62 -122
43 65 229 105 105 172 164 184 163 14 -2 63 -91 197 -357z"/>
<path d="M7715 3784 c-11 -2 -76 -8 -145 -14 -124 -10 -215 -19 -425 -40 -164
-16 -316 -30 -448 -40 -139 -10 -157 -20 -157 -85 0 -56 10 -64 175 -135 22
-9 121 -54 220 -99 99 -45 194 -88 210 -96 17 -7 64 -29 105 -48 41 -19 136
-63 210 -97 302 -140 335 -149 389 -111 31 22 43 65 61 211 6 47 18 144 27
215 25 192 23 243 -7 283 -14 19 -37 40 -52 48 -24 13 -111 17 -163 8z m84
-184 c2 -14 -2 -61 -7 -105 -6 -44 -16 -133 -23 -198 -7 -73 -16 -120 -23
-123 -11 -4 -60 16 -256 108 -36 17 -96 45 -135 63 -38 18 -117 55 -175 82
-58 27 -138 65 -178 83 -100 46 -86 55 113 69 353 26 454 33 535 41 129 12
144 9 149 -20z"/>
<path d="M2085 2244 c-66 -25 -138 -51 -160 -58 -159 -55 -434 -159 -526 -200
-41 -18 -59 -32 -68 -54 -22 -52 4 -88 196 -275 220 -216 234 -228 281 -234
60 -8 88 10 135 84 56 90 61 99 98 163 18 30 58 98 89 150 32 52 77 131 102
175 25 44 54 97 66 118 32 55 30 119 -5 152 -38 35 -67 32 -208 -21z m-11
-182 c9 -15 -240 -452 -258 -452 -6 0 -69 57 -139 127 -100 99 -125 129 -115
138 7 6 69 32 138 57 276 102 326 120 340 129 19 11 28 11 34 1z"/>
<path d="M4858 1342 c-46 -19 -66 -75 -109 -302 -12 -63 -25 -124 -29 -135 -4
-11 -20 -83 -35 -160 -14 -77 -33 -169 -41 -205 -8 -36 -19 -90 -25 -120 -6
-30 -15 -75 -20 -100 -23 -120 -23 -123 6 -154 27 -29 27 -29 118 -23 51 4
202 29 337 56 222 45 247 52 267 76 40 46 32 108 -32 250 -8 16 -28 64 -45
105 -40 97 -41 100 -173 402 -62 142 -122 269 -132 282 -21 27 -60 39 -87 28z
m78 -369 c9 -21 27 -61 40 -90 13 -28 24 -56 24 -62 0 -6 11 -34 24 -63 68
-149 139 -326 140 -353 1 -27 -2 -30 -39 -36 -22 -4 -103 -20 -179 -38 -154
-34 -186 -37 -186 -18 0 13 31 166 50 242 5 22 23 108 40 190 30 145 60 265
66 265 2 0 10 -17 20 -37z"/>
</g>
</svg>
