<svg xmlns="http://www.w3.org/2000/svg" viewBox="0 0 800 800" preserveAspectRatio="xMidYMid meet">
<g transform="translate(0, 800) scale(0.1, -0.1)">
<path d="M2443 7410 c-165 -48 -337 -200 -471 -415 -66 -108 -158 -290 -200
-400 -17 -44 -42 -109 -55 -145 -24 -62 -62 -185 -108 -350 -49 -172 -74 -280
-84 -357 -6 -49 -12 -57 -82 -125 -41 -40 -121 -125 -176 -188 -56 -63 -104
-117 -107 -120 -12 -11 -111 -150 -167 -235 -159 -241 -289 -517 -354 -750
-11 -38 -27 -93 -35 -122 -33 -110 -68 -352 -79 -543 -19 -313 73 -795 206
-1078 16 -34 29 -65 29 -68 0 -12 85 -174 133 -254 123 -205 248 -362 422
-535 161 -159 211 -202 369 -316 163 -117 277 -185 465 -280 150 -74 399 -179
428 -179 7 0 21 -4 31 -10 79 -44 501 -141 747 -171 295 -37 703 -37 990 0
486 61 943 202 1375 424 85 44 157 82 160 86 3 3 21 15 40 25 61 33 201 127
305 204 461 345 809 769 1024 1252 24 52 47 104 52 115 31 70 101 302 124 410
9 44 20 98 25 120 5 22 17 122 26 223 16 162 16 203 5 365 -7 100 -19 216 -27
257 -25 128 -45 224 -54 250 -5 14 -16 52 -26 85 -34 115 -136 369 -153 379
-5 3 -11 16 -14 28 -6 21 -46 94 -123 222 -41 69 -190 268 -259 346 -32 36
-114 120 -182 186 -67 67 -123 124 -123 127 0 2 6 20 14 38 8 21 19 114 27
236 34 543 -64 940 -278 1133 -64 57 -135 98 -203 117 -64 18 -212 16 -279 -3
-247 -72 -510 -314 -736 -677 -37 -60 -74 -111 -82 -114 -8 -3 -61 2 -117 11
-190 32 -211 35 -401 52 -270 24 -530 13 -899 -35 -43 -6 -88 -8 -100 -5 -14
3 -34 31 -61 86 -117 238 -310 487 -460 594 -159 113 -341 150 -502 104z m277
-265 c70 -36 141 -93 213 -175 69 -77 59 -64 129 -170 70 -108 128 -212 128
-233 0 -18 99 -219 112 -228 6 -4 42 0 81 7 292 56 472 73 779 74 349 0 582
-26 888 -101 19 -4 47 -11 62 -15 23 -5 30 -1 48 27 11 19 27 54 36 79 67 188
168 340 349 524 212 216 419 282 553 177 65 -51 152 -216 174 -331 41 -207 49
-307 44 -502 -4 -165 -8 -203 -25 -240 -26 -59 -71 -210 -71 -240 0 -17 14
-35 48 -61 183 -141 394 -360 530 -551 214 -299 356 -641 406 -979 9 -53 18
-102 21 -107 3 -5 6 -115 5 -244 0 -295 -17 -419 -100 -711 -40 -138 -161
-415 -232 -525 -105 -165 -160 -246 -207 -304 -31 -39 -63 -80 -71 -92 -99
-142 -441 -448 -675 -604 -44 -29 -91 -60 -105 -70 -14 -10 -43 -27 -65 -39
-22 -12 -56 -31 -75 -43 -107 -64 -508 -248 -542 -248 -6 0 -24 -6 -41 -13
-62 -27 -317 -102 -412 -121 -236 -48 -333 -63 -540 -81 -573 -50 -1176 38
-1680 245 -109 45 -336 156 -380 186 -20 13 -39 24 -42 24 -7 0 -234 150 -243
160 -3 3 -45 36 -94 74 -150 117 -350 320 -476 485 -88 114 -213 335 -300 525
-49 110 -111 324 -146 506 -21 113 -30 500 -15 613 34 235 45 286 105 474 84
264 185 461 373 733 70 101 190 239 329 376 89 89 166 170 172 180 15 29 23
87 48 314 2 25 15 79 28 120 13 41 29 95 36 120 7 25 16 54 20 65 4 11 25 70
45 130 20 61 43 124 51 142 8 17 14 33 14 36 0 25 197 399 219 417 3 3 18 21
33 41 15 20 46 54 69 75 23 22 49 46 58 55 26 25 90 61 125 70 58 15 148 4
206 -26z"/>
</g>
</svg>
