<svg xmlns="http://www.w3.org/2000/svg" viewBox="0 0 900 900" preserveAspectRatio="xMidYMid meet">
<g transform="translate(0, 900) scale(0.1, -0.1)">
<path d="M7213 8310 c-226 -59 -432 -187 -653 -409 -69 -69 -153 -162 -187
-206 -130 -169 -276 -411 -368 -609 -30 -65 -55 -106 -64 -106 -9 0 -50 18
-93 40 -76 40 -183 84 -243 101 -183 50 -241 60 -408 66 -222 7 -534 -52 -704
-135 -173 -85 -328 -178 -407 -247 -16 -14 -35 -25 -42 -25 -7 0 -22 32 -34
73 -12 39 -27 88 -32 107 -46 151 -178 469 -229 550 -9 14 -34 54 -55 90 -53
91 -161 233 -236 311 -227 239 -532 364 -806 331 -452 -54 -843 -427 -1134
-1082 -112 -252 -224 -620 -267 -880 -6 -30 -19 -109 -30 -175 -11 -66 -28
-187 -37 -270 -21 -193 -30 -738 -15 -895 20 -208 30 -304 41 -365 5 -33 17
-105 25 -160 9 -55 32 -161 51 -235 20 -74 39 -151 44 -170 4 -19 32 -105 63
-190 242 -686 644 -1099 1108 -1140 270 -24 538 74 756 276 34 31 57 32 50 1
-7 -29 -34 -104 -52 -142 -7 -16 -25 -61 -39 -100 -15 -38 -30 -79 -35 -90 -5
-11 -15 -38 -24 -60 -49 -131 -56 -150 -85 -215 -6 -14 -25 -63 -43 -110 -17
-47 -37 -98 -44 -115 -7 -16 -20 -50 -30 -75 -9 -25 -21 -54 -26 -65 -4 -11
-49 -126 -99 -255 -51 -129 -120 -307 -155 -395 -35 -88 -80 -202 -100 -254
-40 -101 -40 -105 -16 -271 8 -55 14 -69 45 -97 40 -37 87 -43 134 -19 28 15
102 90 212 215 36 41 124 141 195 221 72 81 144 163 160 182 17 19 76 86 131
149 56 63 157 177 224 254 130 148 155 171 165 155 3 -5 15 -67 25 -137 11
-71 31 -193 45 -272 14 -79 25 -155 25 -169 0 -14 4 -39 9 -56 16 -49 41 -218
41 -268 0 -128 94 -388 158 -439 55 -42 166 -32 240 22 59 44 91 115 113 257
17 109 36 222 74 447 43 250 82 468 93 530 6 28 18 97 27 155 9 58 22 128 27
155 6 28 14 73 18 100 6 42 79 463 110 640 5 28 23 129 39 225 17 96 33 184
35 195 3 11 8 38 11 60 12 70 27 20 71 -230 14 -77 32 -178 40 -225 24 -131
31 -167 47 -270 9 -52 32 -183 51 -290 20 -107 43 -235 52 -285 8 -49 24 -135
34 -190 17 -89 33 -176 60 -340 4 -27 18 -104 30 -170 12 -66 26 -149 31 -184
5 -35 11 -66 14 -70 2 -4 9 -34 14 -67 12 -71 58 -327 72 -404 5 -30 13 -71
16 -90 9 -56 29 -86 78 -119 70 -47 101 -61 135 -61 75 0 114 51 164 215 15
50 36 116 47 148 10 31 19 64 19 72 0 8 4 23 9 33 6 9 22 55 36 102 14 47 39
126 54 175 16 50 34 109 40 133 10 36 16 42 39 42 15 0 59 -13 97 -29 39 -16
95 -39 125 -51 30 -11 64 -25 75 -30 11 -5 76 -31 145 -59 69 -27 179 -71 245
-98 145 -58 200 -62 281 -20 55 28 77 54 88 104 7 29 -22 124 -82 273 -6 14
-26 68 -45 120 -77 209 -98 266 -107 285 -5 11 -25 65 -45 120 -20 55 -56 152
-80 215 -24 63 -61 160 -80 215 -20 55 -45 118 -55 140 -10 22 -22 56 -28 76
-13 50 -129 357 -147 392 -8 16 -15 33 -15 39 0 6 -22 68 -49 137 -92 235 -92
238 5 195 114 -51 157 -58 339 -59 217 0 268 12 474 112 133 65 262 161 422
314 57 55 190 210 226 264 16 22 51 72 79 110 210 289 449 837 553 1270 18 72
36 146 41 165 8 31 23 113 60 335 29 176 40 344 40 628 0 164 -4 328 -10 365
-5 37 -19 129 -30 206 -11 76 -23 143 -26 147 -3 5 -9 30 -13 57 -10 57 -75
277 -97 329 -27 63 -65 145 -96 208 -155 311 -405 529 -692 604 -124 32 -306
29 -453 -9z m372 -245 c157 -37 325 -156 437 -310 103 -143 202 -366 257 -580
54 -213 91 -519 91 -764 0 -141 -18 -453 -30 -516 -6 -27 -19 -106 -29 -175
-11 -69 -27 -156 -36 -195 -9 -38 -23 -97 -30 -130 -13 -59 -28 -116 -60 -225
-9 -30 -23 -75 -30 -100 -15 -53 -78 -218 -131 -345 -79 -190 -261 -522 -326
-595 -7 -8 -33 -41 -57 -75 -24 -33 -67 -87 -95 -120 -28 -33 -60 -70 -71 -83
-47 -56 -301 -262 -323 -262 -5 0 -20 -8 -33 -18 -67 -52 -275 -112 -386 -112
-57 0 -173 25 -243 52 -104 40 -253 175 -344 310 -53 80 -156 288 -156 316 0
7 -13 40 -30 74 -16 33 -30 66 -30 74 0 7 16 25 36 41 115 87 258 243 378 412
55 78 175 316 200 399 9 27 35 28 67 4 13 -10 31 -22 39 -25 16 -7 122 -83
309 -222 179 -132 231 -165 263 -165 22 0 28 4 28 23 0 35 -104 208 -173 287
-12 14 -32 39 -45 55 -13 17 -68 76 -124 132 -72 73 -125 116 -189 154 -50 29
-89 59 -90 68 -4 75 4 269 12 282 10 19 213 167 286 209 23 14 90 56 149 93
58 37 131 82 162 99 81 44 271 138 278 138 4 0 22 11 40 25 62 48 15 75 -129
75 -219 0 -527 -114 -754 -279 -23 -17 -51 -31 -62 -31 -20 0 -24 8 -36 69
-16 76 -103 271 -168 376 -40 65 -155 210 -201 254 -20 20 -36 45 -36 57 0 13
18 59 40 103 22 44 40 82 40 85 0 3 34 65 76 138 143 249 264 410 437 582 283
280 570 399 822 341z m-4644 -119 c36 -13 85 -36 107 -50 23 -14 45 -26 50
-26 18 0 197 -167 251 -235 105 -132 197 -292 279 -485 59 -140 76 -193 132
-405 45 -169 49 -189 50 -201 0 -6 -34 -62 -76 -125 -71 -108 -163 -281 -184
-345 -25 -81 -40 -109 -56 -113 -10 -2 -56 15 -103 37 -129 61 -166 76 -286
115 -266 86 -405 114 -616 124 -158 7 -219 0 -219 -22 0 -28 41 -45 285 -124
55 -18 109 -36 120 -41 11 -4 58 -22 105 -40 185 -70 389 -172 540 -271 l120
-78 0 -58 c0 -91 -4 -96 -88 -136 -98 -47 -186 -96 -190 -108 -2 -5 -8 -9 -14
-9 -11 0 -54 -31 -173 -127 -101 -81 -274 -255 -353 -353 -29 -36 -58 -71 -64
-79 -38 -46 -108 -160 -108 -176 0 -30 123 39 222 124 75 64 390 296 468 344
71 44 211 116 264 137 32 12 39 1 55 -75 46 -219 141 -434 270 -608 42 -58 48
-75 32 -105 -6 -9 -20 -51 -31 -92 -125 -439 -291 -773 -514 -1038 -41 -49
-101 -112 -133 -139 -66 -57 -208 -153 -227 -153 -6 0 -16 -4 -22 -9 -5 -5
-38 -19 -74 -31 -51 -18 -88 -22 -175 -23 -124 -1 -168 9 -275 61 -238 114
-454 387 -615 777 -20 50 -41 99 -45 110 -46 108 -117 384 -170 665 -24 122
-60 568 -60 730 0 219 42 713 70 830 5 19 14 62 20 95 68 352 170 667 306 944
86 175 120 232 221 369 167 228 361 374 572 434 91 25 239 18 332 -16z m2398
-1036 c20 -5 72 -17 116 -26 44 -10 127 -38 184 -62 280 -122 500 -341 628
-627 97 -216 127 -543 72 -785 -21 -90 -40 -162 -54 -195 -4 -11 -19 -47 -32
-80 -41 -104 -150 -283 -227 -375 -52 -61 -195 -198 -254 -243 -165 -126 -388
-228 -597 -273 -99 -21 -388 -24 -483 -5 -254 50 -480 170 -655 348 -164 166
-298 448 -327 688 -77 625 264 1225 861 1516 72 35 226 86 304 100 33 6 76 15
95 19 50 11 326 12 369 0z m-1223 -2729 c20 -18 164 -90 250 -124 108 -43 218
-73 301 -82 35 -4 67 -13 74 -21 12 -15 2 -94 -36 -289 -7 -38 -21 -113 -30
-165 -9 -52 -25 -142 -36 -200 -11 -57 -27 -147 -35 -200 -13 -89 -47 -290
-73 -425 -6 -33 -18 -105 -27 -160 -8 -55 -20 -120 -24 -145 -5 -25 -12 -62
-15 -82 -4 -24 -11 -38 -20 -38 -9 0 -50 74 -106 188 -164 337 -182 371 -221
412 -67 69 -133 93 -194 69 -24 -8 -97 -65 -155 -119 -8 -8 -53 -49 -100 -91
-46 -42 -112 -101 -146 -132 -35 -32 -67 -57 -73 -57 -19 0 -10 48 20 112 16
34 30 69 30 76 0 7 4 20 10 30 11 19 140 348 140 357 0 3 8 24 19 48 10 23 26
62 36 87 9 25 21 54 25 65 65 163 96 242 135 346 26 68 57 147 70 174 12 28
26 61 30 75 9 32 93 248 107 278 12 23 27 28 44 13z m1611 -116 c22 -67 28
-80 58 -150 7 -16 50 -129 95 -250 45 -121 88 -233 95 -250 7 -16 18 -43 23
-60 9 -27 50 -140 116 -320 14 -38 31 -79 36 -90 5 -11 26 -65 46 -120 20 -55
42 -116 49 -135 8 -19 28 -73 45 -120 100 -268 113 -303 150 -400 12 -30 32
-82 45 -115 12 -33 27 -71 32 -85 11 -26 7 -50 -8 -50 -10 0 -3 -2 -399 128
-168 55 -322 104 -342 107 -65 12 -103 -21 -156 -134 -24 -53 -57 -124 -73
-158 -16 -35 -34 -63 -39 -63 -16 0 -27 32 -34 95 -3 33 -10 80 -16 105 -8 39
-41 224 -54 300 -13 79 -20 118 -42 240 -14 74 -31 172 -39 218 -8 45 -22 121
-30 170 -9 48 -21 114 -26 147 -6 33 -16 92 -24 130 -7 39 -21 115 -30 170
-10 55 -23 132 -31 170 -8 39 -14 82 -14 97 0 15 -4 29 -9 32 -4 3 -11 31 -15
63 -3 32 -15 92 -25 133 -12 48 -16 79 -10 86 5 7 35 15 67 19 48 6 114 21
262 61 14 4 30 10 35 14 6 4 24 11 42 15 18 3 63 22 100 41 37 18 74 33 82 31
8 -1 25 -33 38 -72z m-1746 -1485 c15 -28 179 -372 179 -375 0 -5 127 -273
147 -310 9 -16 24 -39 34 -50 29 -32 37 -65 27 -114 -5 -25 -14 -73 -19 -106
-15 -90 -24 -145 -53 -309 -14 -82 -26 -160 -26 -172 0 -12 -9 -32 -19 -45
l-19 -24 -5 25 c-3 14 -13 68 -22 120 -9 52 -21 122 -26 155 -6 33 -15 85 -19
115 -7 46 -46 273 -64 375 -2 17 -12 73 -20 125 -20 122 -31 162 -61 208 -84
128 -160 132 -274 14 -95 -100 -132 -140 -191 -212 -30 -36 -72 -85 -95 -110
-22 -25 -65 -74 -95 -110 -30 -35 -67 -76 -81 -91 -14 -15 -62 -69 -106 -121
-44 -51 -96 -111 -116 -133 -20 -22 -37 -43 -37 -47 0 -5 -7 -8 -15 -8 -27 0
-26 4 75 255 17 44 38 97 46 118 8 20 21 56 30 80 35 92 68 148 93 162 14 7
37 23 51 35 14 12 36 31 50 42 14 12 66 58 115 102 50 45 122 109 160 142 39
34 126 112 195 173 69 60 131 109 139 108 8 -1 17 -9 22 -17z m1913 -690 c556
-183 732 -242 743 -251 7 -6 17 -25 22 -43 26 -85 92 -261 101 -270 12 -12 13
-53 2 -60 -5 -3 -32 6 -61 20 -29 13 -57 24 -63 24 -5 0 -28 8 -51 18 -42 18
-114 48 -152 62 -11 4 -54 21 -95 38 -159 64 -273 104 -310 109 -33 5 -49 -1
-115 -42 -97 -61 -93 -52 -205 -430 -17 -60 -34 -116 -36 -122 -7 -24 -34 -13
-39 15 -4 15 -11 47 -17 72 -5 25 -12 89 -14 142 -2 53 -8 108 -14 123 -17 45
-15 143 4 164 9 9 16 21 16 25 0 5 13 36 29 70 36 74 78 169 116 256 30 69 51
100 68 100 6 0 38 -9 71 -20z"/>
</g>
</svg>
